<?xml version="1.0" encoding="UTF-8"?>
<!DOCTYPE svg PUBLIC "-//W3C//DTD SVG 1.1//EN" "http://www.w3.org/Graphics/SVG/1.1/DTD/svg11.dtd">
<!-- Creator: CorelDRAW 2017 -->
<svg xmlns="http://www.w3.org/2000/svg" xml:space="preserve" width="1000px" height="702px" version="1.1" style="shape-rendering:geometricPrecision; text-rendering:geometricPrecision; image-rendering:optimizeQuality; fill-rule:evenodd; clip-rule:evenodd"
viewBox="0 0 1000 702.31"
 xmlns:xlink="http://www.w3.org/1999/xlink">
 <defs>
  <style type="text/css">
   <![CDATA[
    .fil5 {fill:#0478BD}
    .fil2 {fill:#0478BD}
    .fil0 {fill:#D2D3D5}
    .fil3 {fill:white}
    .fil1 {fill:white}
    .fil4 {fill:#FBB141;fill-rule:nonzero}
    .fil6 {fill:#0478BD}
   ]]>
  </style>
 </defs>
 <g id="Camada_x0020_1">
  <metadata id="CorelCorpID_0Corel-Layer"/>
  <g id="_2119597243280">
   <path class="fil0" d="M474.74 1.55c128.19,-14.72 244.08,77.31 258.79,205.5 14.72,128.19 -77.31,244.08 -205.5,258.79 -128.19,14.72 -244.08,-77.31 -258.8,-205.5 -14.71,-128.19 77.32,-244.08 205.51,-258.79z"/>
   <path class="fil1" d="M475.53 8.4c124.4,-14.28 236.87,75.03 251.15,199.44 14.28,124.4 -75.03,236.87 -199.44,251.15 -124.4,14.28 -236.87,-75.03 -251.15,-199.44 -14.28,-124.4 75.03,-236.87 199.44,-251.15z"/>
   <path class="fil2" d="M705.44 173.05c3.46,11.69 5.97,23.84 7.41,36.37 13.4,116.77 -70.43,222.34 -187.2,235.74 -86.76,9.96 -167.33,-33.78 -208.51,-104.82 117.51,-92.37 235.76,-155.11 388.3,-167.29z"/>
   <path class="fil2" d="M477.11 22.23c68.6,-7.87 133.32,17.82 177.77,64.03 -130.29,51.74 -239.44,132.16 -347.84,234.34 -8.68,-19.39 -14.57,-40.41 -17.12,-62.63 -13.4,-116.77 70.43,-222.34 187.19,-235.74z"/>
   <path class="fil3" d="M370.95 120.85c55.02,-49.79 135.6,-53.5 194.36,-13.52 -6.97,3.55 -13.38,7.2 -19.28,10.97 -33.94,-14.03 -74.41,-8.36 -103.44,17.92 -40.19,36.36 -43.29,98.46 -6.92,138.65 36.37,40.19 98.46,43.29 138.65,6.92 22.15,-20.05 33.03,-47.92 32.24,-75.63 7.32,-2.23 15.43,-3.34 23.81,-3.61 12.24,53.77 -4.11,112.42 -47.9,152.04 -64.53,58.4 -164.23,53.43 -222.63,-11.1 -58.4,-64.54 -53.42,-164.24 11.11,-222.64z"/>
   <path class="fil4" d="M276.58 354.59l1.01 11.3c158.05,-128.13 293.19,-204.22 490.28,-203.13l5.91 -95.99c-206.25,36.33 -347.64,143.68 -497.2,287.82z"/>
   <g>
    <path class="fil5" d="M151.78 695.69l3.57 -1.65c0.34,1.22 0.97,2.16 1.86,2.8 0.91,0.65 2.06,0.97 3.46,0.97 1.33,0 2.39,-0.37 3.18,-1.11 0.78,-0.74 1.17,-1.72 1.17,-2.96 0,-1.62 -1.34,-3.06 -4.02,-4.33 -0.38,-0.19 -0.67,-0.33 -0.87,-0.41 -3.03,-1.48 -5.05,-2.82 -6.06,-4.02 -1.01,-1.19 -1.52,-2.66 -1.52,-4.39 0,-2.25 0.77,-4.06 2.29,-5.46 1.52,-1.39 3.52,-2.08 5.99,-2.08 2.03,0 3.73,0.39 5.1,1.17 1.36,0.79 2.31,1.92 2.83,3.38l-3.5 1.8c-0.55,-0.86 -1.15,-1.49 -1.81,-1.89 -0.66,-0.41 -1.41,-0.6 -2.27,-0.6 -1.2,0 -2.16,0.31 -2.86,0.93 -0.71,0.63 -1.07,1.47 -1.07,2.53 0,1.65 1.56,3.19 4.67,4.62 0.24,0.11 0.42,0.2 0.56,0.26 2.72,1.26 4.59,2.49 5.61,3.68 1.01,1.2 1.52,2.7 1.52,4.49 0,2.6 -0.82,4.68 -2.47,6.21 -1.64,1.53 -3.85,2.3 -6.65,2.3 -2.34,0 -4.26,-0.53 -5.77,-1.61 -1.49,-1.08 -2.47,-2.62 -2.94,-4.63zm35.88 5.51l0 -27.53 4.48 0 0 27.53 -4.48 0zm22.41 -5.51l3.57 -1.65c0.34,1.22 0.96,2.16 1.86,2.8 0.91,0.65 2.06,0.97 3.46,0.97 1.33,0 2.39,-0.37 3.17,-1.11 0.79,-0.74 1.18,-1.72 1.18,-2.96 0,-1.62 -1.34,-3.06 -4.03,-4.33 -0.38,-0.19 -0.66,-0.33 -0.86,-0.41 -3.03,-1.48 -5.06,-2.82 -6.06,-4.02 -1.01,-1.19 -1.52,-2.66 -1.52,-4.39 0,-2.25 0.76,-4.06 2.29,-5.46 1.52,-1.39 3.51,-2.08 5.99,-2.08 2.02,0 3.72,0.39 5.09,1.17 1.37,0.79 2.31,1.92 2.84,3.38l-3.5 1.8c-0.55,-0.86 -1.15,-1.49 -1.82,-1.89 -0.65,-0.41 -1.41,-0.6 -2.26,-0.6 -1.2,0 -2.16,0.31 -2.86,0.93 -0.72,0.63 -1.07,1.47 -1.07,2.53 0,1.65 1.55,3.19 4.67,4.62 0.23,0.11 0.42,0.2 0.56,0.26 2.72,1.26 4.58,2.49 5.61,3.68 1.01,1.2 1.52,2.7 1.52,4.49 0,2.6 -0.83,4.68 -2.47,6.21 -1.64,1.53 -3.86,2.3 -6.65,2.3 -2.35,0 -4.27,-0.53 -5.77,-1.61 -1.49,-1.08 -2.48,-2.62 -2.94,-4.63zm44.7 -18.22l0 23.73 -4.48 0 0 -23.73 -7.31 0 0 -3.8 19.07 0 0 3.8 -7.28 0zm23.78 23.73l0 -27.53 15.37 0 0 3.8 -10.9 0 0 6.9 10.9 0 0 3.93 -10.9 0 0 8.9 10.9 0 0 4 -15.37 0zm56.03 -13.59c-0.05,-0.22 -0.13,-0.81 -0.24,-1.77 -0.1,-0.81 -0.19,-1.47 -0.26,-1.99 -0.12,0.62 -0.28,1.25 -0.49,1.88 -0.2,0.62 -0.46,1.26 -0.77,1.91l-7.2 14.67 -7.21 -14.97c-0.3,-0.61 -0.56,-1.21 -0.78,-1.79 -0.22,-0.58 -0.41,-1.14 -0.57,-1.7 -0.01,0.57 -0.06,1.18 -0.14,1.8 -0.09,0.64 -0.21,1.3 -0.37,1.99l-2.95 13.56 -4.12 0 6.51 -28.7 8.12 17.38c0.13,0.27 0.32,0.73 0.58,1.37 0.25,0.64 0.56,1.43 0.93,2.37 0.26,-0.79 0.67,-1.79 1.24,-3.01 0.14,-0.32 0.26,-0.57 0.34,-0.75l7.93 -17.36 6.66 28.7 -4.16 0 -3.05 -13.59zm29.67 2.78l7.67 0 -2.81 -6.28c-0.16,-0.41 -0.34,-0.87 -0.51,-1.39 -0.17,-0.52 -0.35,-1.1 -0.53,-1.74 -0.15,0.61 -0.3,1.17 -0.48,1.69 -0.16,0.52 -0.34,1 -0.51,1.44l-2.83 6.28zm12.38 10.81l-3.13 -7.09 -10.9 0 -3.19 7.09 -4.71 0 13.33 -28.62 13.32 28.62 -4.72 0zm18.82 -5.51l3.57 -1.65c0.34,1.22 0.96,2.16 1.86,2.8 0.91,0.65 2.06,0.97 3.46,0.97 1.33,0 2.39,-0.37 3.17,-1.11 0.79,-0.74 1.18,-1.72 1.18,-2.96 0,-1.62 -1.34,-3.06 -4.03,-4.33 -0.38,-0.19 -0.66,-0.33 -0.86,-0.41 -3.03,-1.48 -5.06,-2.82 -6.06,-4.02 -1.01,-1.19 -1.52,-2.66 -1.52,-4.39 0,-2.25 0.76,-4.06 2.29,-5.46 1.52,-1.39 3.51,-2.08 5.99,-2.08 2.02,0 3.72,0.39 5.09,1.17 1.37,0.79 2.31,1.92 2.84,3.38l-3.5 1.8c-0.55,-0.86 -1.15,-1.49 -1.82,-1.89 -0.65,-0.41 -1.41,-0.6 -2.26,-0.6 -1.2,0 -2.16,0.31 -2.86,0.93 -0.72,0.63 -1.07,1.47 -1.07,2.53 0,1.65 1.55,3.19 4.67,4.62 0.23,0.11 0.42,0.2 0.56,0.26 2.72,1.26 4.58,2.49 5.61,3.68 1.01,1.2 1.52,2.7 1.52,4.49 0,2.6 -0.82,4.68 -2.47,6.21 -1.64,1.53 -3.86,2.3 -6.66,2.3 -2.34,0 -4.26,-0.53 -5.76,-1.61 -1.5,-1.08 -2.48,-2.62 -2.94,-4.63zm59.13 5.51l0 -27.53 4.47 0 0 27.53 -4.47 0zm23.99 0l0 -28.62 17.48 16.83c0.48,0.48 0.97,0.98 1.45,1.52 0.49,0.54 1,1.15 1.54,1.83l0 -19.09 4.14 0 0 28.61 -17.84 -17.14c-0.48,-0.46 -0.94,-0.95 -1.38,-1.46 -0.45,-0.52 -0.87,-1.05 -1.27,-1.62l0 19.14 -4.12 0zm52.91 -23.73l0 23.73 -4.47 0 0 -23.73 -7.32 0 0 -3.8 19.07 0 0 3.8 -7.28 0zm23.78 23.73l0 -27.53 15.37 0 0 3.8 -10.89 0 0 6.9 10.89 0 0 3.93 -10.89 0 0 8.9 10.89 0 0 4 -15.37 0zm33.58 0l0 -27.53 4.48 0 0 23.53 10 0 0 4 -14.48 0zm31.27 0l0 -27.53 4.47 0 0 27.53 -4.47 0zm39.24 -14.1l10.91 0c0,0.19 0,0.45 0.02,0.79 0.03,0.89 0.05,1.49 0.05,1.8 0,3.88 -1.11,6.88 -3.33,9.03 -2.21,2.14 -5.34,3.21 -9.38,3.21 -2.26,0 -4.26,-0.33 -6.04,-0.99 -1.76,-0.67 -3.31,-1.67 -4.64,-3.01 -1.3,-1.33 -2.3,-2.89 -3,-4.69 -0.69,-1.79 -1.04,-3.71 -1.04,-5.75 0,-2.08 0.35,-4 1.06,-5.75 0.71,-1.76 1.76,-3.31 3.15,-4.65 1.34,-1.31 2.91,-2.32 4.72,-3.01 1.81,-0.68 3.74,-1.03 5.79,-1.03 2.17,0 4.11,0.4 5.83,1.19 1.7,0.79 3.23,1.99 4.57,3.62l-3.27 2.47c-0.93,-1.08 -1.98,-1.88 -3.14,-2.41 -1.17,-0.53 -2.47,-0.79 -3.92,-0.79 -2.97,0 -5.41,0.96 -7.29,2.87 -1.89,1.91 -2.84,4.4 -2.84,7.45 0,3.12 0.95,5.64 2.84,7.57 1.88,1.94 4.33,2.91 7.33,2.91 2.56,0 4.57,-0.6 6.04,-1.79 1.47,-1.19 2.2,-2.81 2.2,-4.87l0 -0.39 -6.62 0 0 -3.78zm28.77 14.1l0 -27.53 15.36 0 0 3.8 -10.89 0 0 6.9 10.89 0 0 3.93 -10.89 0 0 8.9 10.89 0 0 4 -15.36 0zm33.57 0l0 -28.62 17.49 16.83c0.48,0.48 0.96,0.98 1.45,1.52 0.49,0.54 1,1.15 1.54,1.83l0 -19.09 4.14 0 0 28.61 -17.84 -17.14c-0.48,-0.46 -0.94,-0.95 -1.38,-1.46 -0.45,-0.52 -0.88,-1.05 -1.28,-1.62l0 19.14 -4.12 0zm52.92 -23.73l0 23.73 -4.48 0 0 -23.73 -7.32 0 0 -3.8 19.08 0 0 3.8 -7.28 0zm23.78 23.73l0 -27.53 15.37 0 0 3.8 -10.9 0 0 6.9 10.9 0 0 3.93 -10.9 0 0 8.9 10.9 0 0 4 -15.37 0zm32 -5.51l3.57 -1.65c0.34,1.22 0.96,2.16 1.86,2.8 0.9,0.65 2.06,0.97 3.46,0.97 1.33,0 2.39,-0.37 3.17,-1.11 0.78,-0.74 1.18,-1.72 1.18,-2.96 0,-1.62 -1.35,-3.06 -4.03,-4.33 -0.38,-0.19 -0.66,-0.33 -0.87,-0.41 -3.03,-1.48 -5.05,-2.82 -6.06,-4.02 -1,-1.19 -1.51,-2.66 -1.51,-4.39 0,-2.25 0.76,-4.06 2.28,-5.46 1.53,-1.39 3.52,-2.08 5.99,-2.08 2.03,0 3.73,0.39 5.1,1.17 1.37,0.79 2.31,1.92 2.84,3.38l-3.5 1.8c-0.55,-0.86 -1.16,-1.49 -1.82,-1.89 -0.65,-0.41 -1.41,-0.6 -2.26,-0.6 -1.2,0 -2.16,0.31 -2.87,0.93 -0.71,0.63 -1.06,1.47 -1.06,2.53 0,1.65 1.55,3.19 4.67,4.62 0.23,0.11 0.42,0.2 0.55,0.26 2.73,1.26 4.59,2.49 5.61,3.68 1.02,1.2 1.53,2.7 1.53,4.49 0,2.6 -0.83,4.68 -2.47,6.21 -1.64,1.53 -3.86,2.3 -6.66,2.3 -2.34,0 -4.26,-0.53 -5.76,-1.61 -1.5,-1.08 -2.48,-2.62 -2.94,-4.63z"/>
    <path class="fil6" d="M93.02 592.61c0,-0.77 0.03,-1.77 0.09,-2.99 0.07,-1.23 0.1,-2.16 0.1,-2.81 0.26,-6.31 -0.71,-12.34 -2.9,-18.08 -2.19,-5.73 -5.35,-10.76 -9.48,-15.08 -4.12,-4.32 -9.09,-7.74 -14.89,-10.25 -5.8,-2.52 -12.24,-3.84 -19.33,-3.97 -6.71,0.26 -12.9,1.68 -18.57,4.26 -5.67,2.58 -10.6,6.03 -14.79,10.34 -4.19,4.32 -7.45,9.32 -9.77,14.99 -2.32,5.67 -3.48,11.73 -3.48,18.18 0.26,6.96 1.64,13.34 4.16,19.14 2.51,5.8 5.9,10.8 10.15,14.99 4.25,4.19 9.25,7.45 14.99,9.77 5.73,2.32 12.02,3.48 18.85,3.48 4.51,0.25 8.83,-0.39 12.96,-1.94 4.12,-1.54 8.18,-3.22 12.18,-5.02l-1.55 -6.39c-8.12,2.2 -14.56,3.29 -19.33,3.29 -5.8,0 -10.64,-1.03 -14.51,-3.09 -3.87,-2.07 -6.99,-4.64 -9.38,-7.74 -2.38,-3.09 -4.12,-6.51 -5.22,-10.25 -1.09,-3.74 -1.83,-7.35 -2.22,-10.83l71.94 0zm858.63 -54.27c-8.89,0 -16.5,1.35 -22.81,4.06 -6.32,2.71 -11.48,6.28 -15.47,10.73 -4,4.45 -6.97,9.57 -8.9,15.38 -1.93,5.8 -3.16,11.86 -3.09,18.17 0.06,6.45 1.35,12.57 3.28,18.37 1.94,5.81 4.9,10.93 8.9,15.38 4,4.45 9.12,7.96 15.37,10.54 6.25,2.58 13.83,3.86 22.72,3.86 8.51,0 15.76,-1.28 21.76,-3.86 5.99,-2.58 10.93,-6.03 14.79,-10.35 3.87,-4.32 6.74,-9.41 8.61,-15.28 1.87,-5.86 3.19,-12.08 3.19,-18.66 0,-6.32 -1.35,-12.37 -3.29,-18.17 -1.93,-5.81 -4.83,-10.93 -8.7,-15.38 -3.87,-4.45 -8.77,-8.02 -14.7,-10.73 -5.93,-2.71 -13.15,-4.06 -21.66,-4.06zm-28.04 51.63l0 -6.77c0,-6.44 0.65,-11.83 1.94,-16.14 1.29,-4.32 3.12,-7.77 5.51,-10.35 2.38,-2.58 5.25,-4.42 8.6,-5.51 3.36,-1.1 7.03,-1.45 11.03,-1.45 4,0 7.67,0.32 11.02,1.35 3.35,1.03 6.22,2.84 8.61,5.42 2.38,2.58 4.22,6.06 5.51,10.44 1.29,4.38 1.93,9.8 1.93,16.24l0 6.77c0,6.45 -0.64,11.86 -1.93,16.25 -1.29,4.38 -3.13,7.86 -5.51,10.44 -2.39,2.58 -5.26,4.38 -8.61,5.41 -3.35,1.03 -7.02,1.36 -11.02,1.36 -4,0 -7.67,-0.36 -11.03,-1.46 -3.35,-1.09 -6.22,-2.93 -8.6,-5.51 -2.39,-2.57 -4.22,-6.02 -5.51,-10.34 -1.29,-4.32 -1.94,-9.7 -1.94,-16.15zm-25.29 -54.08c-18.43,0 -32.52,4.54 -42.25,13.63 -9.73,9.09 -14.6,21.5 -14.6,37.23l0 45.83 22.24 0 0 -53.57c0,-6.44 1,-11.83 2.99,-16.14 2,-4.32 4.61,-7.77 7.84,-10.35 3.22,-2.58 6.83,-4.41 10.82,-5.51 4,-1.1 8,-1.58 11.99,-1.45 1.55,0 3.16,0.03 4.84,0.1 1.68,0.06 3.29,0.22 4.83,0.48l0 -10.06c-1.41,-0.13 -2.9,-0.19 -4.44,-0.19 -1.42,0 -2.84,0 -4.26,0zm-135.52 54.08l0 -52.02 -22.24 0 0 46.03c0,7.86 0.87,14.92 2.61,21.17 1.74,6.25 4.51,11.57 8.31,15.96 3.81,4.38 8.74,7.76 14.8,10.15 6.06,2.38 13.41,3.57 22.04,3.57 15.6,0 27.56,-4.54 35.88,-13.63 8.31,-9.09 12.47,-21.5 12.47,-37.22l0 -46.03 -22.24 0 0 52.02c0,6.45 -0.64,11.86 -1.93,16.25 -1.29,4.38 -3.13,7.86 -5.52,10.44 -2.38,2.58 -5.25,4.38 -8.6,5.41 -3.35,1.03 -7.03,1.48 -11.02,1.36 -4,0.12 -7.55,-0.36 -10.64,-1.46 -3.09,-1.09 -5.67,-2.93 -7.73,-5.51 -2.07,-2.57 -3.61,-6.02 -4.65,-10.34 -1.03,-4.32 -1.54,-9.7 -1.54,-16.15zm-27.23 42.07c0,-11.35 0,-17.9 0,-24.09 0,-6.31 0,-10.95 0,-13.92 0,-3.09 0,-5.03 0,-5.8 0,-0.77 0,-1.29 0,-1.55 -0.26,-7.47 -1.36,-14.18 -3.29,-20.11 -1.94,-5.93 -4.9,-10.99 -8.9,-15.18 -3.99,-4.19 -9.12,-7.41 -15.37,-9.67 -6.25,-2.25 -13.83,-3.38 -22.72,-3.38 -8.51,0 -15.73,1.13 -21.66,3.38 -5.93,2.26 -10.83,5.48 -14.7,9.67 -3.87,4.19 -6.77,9.25 -8.7,15.18 -1.93,5.93 -3.03,12.64 -3.29,20.11 0.26,7.48 1.36,14.18 3.29,20.12 1.93,5.93 4.83,10.99 8.7,15.17 3.87,4.2 8.77,7.39 14.7,9.58 5.93,2.19 13.15,3.28 21.66,3.28 2.83,0 5.51,-0.28 8.02,-0.87 2.52,-0.58 4.87,-1.61 7.06,-3.09 2.19,-1.48 4.35,-3.51 6.48,-6.09 2.13,-2.58 4.28,-5.87 6.48,-9.86l-0.2 17.12 0 0.58 22.44 0 0 -0.58zm-22.24 -48.45c0,12.89 -2.48,22.82 -7.45,29.78 -4.96,6.96 -11.5,10.31 -19.63,10.06 -3.99,0.12 -7.67,-0.33 -11.02,-1.36 -3.35,-1.03 -6.22,-2.83 -8.6,-5.41 -2.39,-2.58 -4.23,-6.06 -5.51,-10.44 -1.29,-4.39 -1.94,-9.8 -1.94,-16.25l0 -6.77c0,-6.44 0.65,-11.86 1.94,-16.24 1.28,-4.38 3.12,-7.86 5.51,-10.44 2.38,-2.58 5.25,-4.39 8.6,-5.42 3.35,-1.03 7.03,-1.48 11.02,-1.35 4,-0.13 7.67,0.35 11.03,1.45 3.35,1.09 6.22,2.93 8.6,5.51 2.39,2.58 4.22,6.03 5.51,10.35 1.29,4.31 1.94,9.7 1.94,16.14l0 0.39zm-70.36 -48.28l-22.43 0 0 -47.96 -21.47 0 0 47.96 -22.62 0 0 11.21 22.62 0 0 86.06 21.47 0 0 -86.06 22.43 0 0 -11.21zm-83.7 46.41l0 50.86 22.24 0 0 -44.87c0,-7.86 -0.87,-14.92 -2.61,-21.17 -1.74,-6.25 -4.51,-11.57 -8.32,-15.95 -3.8,-4.39 -8.73,-7.77 -14.79,-10.16 -6.06,-2.38 -13.41,-3.57 -22.04,-3.57 -15.6,0 -27.56,4.54 -35.87,13.63 -8.32,9.09 -12.48,21.5 -12.48,37.22l0 44.87 22.24 0 0 -50.86c0,-6.45 0.65,-11.86 1.93,-16.24 1.29,-4.39 3.13,-7.87 5.52,-10.45 2.38,-2.57 5.25,-4.38 8.6,-5.41 3.35,-1.03 7.03,-1.48 11.02,-1.35 4,-0.13 7.55,0.35 10.64,1.45 3.09,1.09 5.67,2.93 7.73,5.51 2.07,2.58 3.61,6.02 4.65,10.34 1.03,4.32 1.54,9.7 1.54,16.15zm-79.05 10.89c0,-0.77 0.03,-1.77 0.09,-2.99 0.07,-1.23 0.1,-2.16 0.1,-2.81 0.26,-6.31 -0.71,-12.34 -2.9,-18.08 -2.19,-5.73 -5.35,-10.76 -9.48,-15.08 -4.12,-4.32 -9.09,-7.74 -14.89,-10.25 -5.8,-2.52 -12.24,-3.84 -19.34,-3.97 -6.7,0.26 -12.89,1.68 -18.56,4.26 -5.67,2.58 -10.6,6.03 -14.79,10.34 -4.19,4.32 -7.45,9.32 -9.77,14.99 -2.32,5.67 -3.48,11.73 -3.48,18.18 0.26,6.96 1.64,13.34 4.16,19.14 2.51,5.8 5.9,10.8 10.15,14.99 4.25,4.19 9.25,7.45 14.99,9.77 5.73,2.32 12.02,3.48 18.85,3.48 4.51,0.25 8.83,-0.39 12.96,-1.94 4.12,-1.54 8.18,-3.22 12.18,-5.02l-1.55 -6.39c-8.12,2.2 -14.56,3.29 -19.33,3.29 -5.81,0 -10.64,-1.03 -14.51,-3.09 -3.87,-2.07 -6.99,-4.64 -9.38,-7.74 -2.38,-3.09 -4.12,-6.51 -5.22,-10.25 -1.09,-3.74 -1.83,-7.35 -2.22,-10.83l71.94 0zm-47.19 -42.15l0.39 0c7.09,0 12.89,2.38 17.4,7.15 4.51,4.77 7.29,12.44 8.32,23.01l-50.67 0c0.39,-3.86 1.16,-7.6 2.32,-11.21 1.16,-3.61 2.74,-6.8 4.74,-9.57 2,-2.78 4.45,-5.03 7.35,-6.77 2.9,-1.74 6.28,-2.61 10.15,-2.61zm-89.11 -0.65c3.74,0 6.9,0.33 9.47,0.97 2.58,0.64 4.84,1.68 6.77,3.09 1.94,1.42 3.68,3.23 5.22,5.42 1.55,2.19 3.23,4.77 5.03,7.73 3.61,-3.09 6.35,-5.25 8.22,-6.47 1.87,-1.23 3.22,-2 4.06,-2.33 0.84,-0.32 1.22,-0.45 1.16,-0.38 -0.06,0.06 -0.23,-0.16 -0.48,-0.68 -1.42,-2.96 -4,-6.19 -7.74,-9.67 -3.74,-3.48 -9.22,-6.38 -16.43,-8.7 -9.29,-2.19 -17.86,-2.45 -25.72,-0.77 -7.87,1.67 -14.7,4.73 -20.5,9.18 -5.8,4.45 -10.35,10.09 -13.64,16.92 -3.28,6.84 -4.93,14.38 -4.93,22.63 0,6.96 1.16,13.4 3.48,19.34 2.32,5.93 5.61,11.02 9.87,15.27 4.25,4.26 9.28,7.58 15.08,9.96 5.8,2.39 12.18,3.51 19.14,3.39 6.06,-0.13 11.19,-0.49 15.38,-1.07 4.19,-0.58 7.83,-1.32 10.92,-2.22 3.1,-0.9 5.87,-1.9 8.32,-3 2.45,-1.1 5.03,-2.22 7.73,-3.38l-0.38 -6.19c-10.32,3.48 -19.6,4.8 -27.85,3.96 -8.25,-0.84 -15.31,-2.9 -21.17,-6.18 -5.87,-3.29 -10.51,-7.29 -13.93,-11.99 -3.41,-4.71 -5.38,-9.25 -5.9,-13.64 -0.9,-7.22 -0.67,-13.34 0.68,-18.37 1.35,-5.03 3.45,-9.12 6.29,-12.28 2.83,-3.16 6.15,-5.57 9.96,-7.25 3.8,-1.68 7.76,-2.77 11.89,-3.29zm-102.65 -11.47c-8.9,0 -16.5,1.35 -22.82,4.06 -6.32,2.71 -11.47,6.28 -15.47,10.73 -4,4.45 -6.96,9.57 -8.9,15.38 -1.93,5.8 -2.96,11.86 -3.09,18.17 0.26,6.45 1.35,12.57 3.29,18.37 1.93,5.81 4.9,10.93 8.89,15.38 4,4.45 9.12,7.96 15.38,10.54 6.25,2.58 13.82,3.86 22.72,3.86 8.51,0 15.76,-1.28 21.75,-3.86 6,-2.58 10.93,-6.03 14.8,-10.35 3.86,-4.32 6.73,-9.41 8.6,-15.28 1.87,-5.86 2.94,-12.08 3.19,-18.66 -0.25,-6.31 -1.35,-12.37 -3.29,-18.17 -1.93,-5.81 -4.83,-10.93 -8.7,-15.38 -3.86,-4.45 -8.76,-8.02 -14.69,-10.73 -5.93,-2.71 -13.15,-4.06 -21.66,-4.06zm-28.04 51.63l0 -6.77c0,-6.44 0.64,-11.83 1.93,-16.14 1.29,-4.32 3.13,-7.77 5.51,-10.35 2.39,-2.58 5.26,-4.42 8.61,-5.51 3.35,-1.1 7.03,-1.58 11.02,-1.45 4,-0.13 7.67,0.32 11.02,1.35 3.36,1.03 6.22,2.84 8.61,5.42 2.38,2.58 4.22,6.06 5.51,10.44 1.29,4.38 1.93,9.8 1.93,16.24l0 6.77c0,6.45 -0.64,11.86 -1.93,16.25 -1.29,4.38 -3.13,7.86 -5.51,10.44 -2.39,2.58 -5.25,4.38 -8.61,5.41 -3.35,1.03 -7.02,1.48 -11.02,1.36 -3.99,0.12 -7.67,-0.36 -11.02,-1.46 -3.35,-1.09 -6.22,-2.93 -8.61,-5.51 -2.38,-2.57 -4.22,-6.02 -5.51,-10.34 -1.29,-4.32 -1.93,-9.7 -1.93,-16.15zm-65.52 -40.16c3.74,0 6.89,0.33 9.47,0.97 2.58,0.64 4.84,1.68 6.77,3.09 1.93,1.42 3.68,3.23 5.22,5.42 1.55,2.19 3.22,4.77 5.03,7.73 3.61,-3.09 6.35,-5.25 8.22,-6.47 1.87,-1.23 3.22,-2 4.06,-2.33 0.84,-0.32 1.22,-0.45 1.16,-0.38 -0.06,0.06 -0.23,-0.16 -0.48,-0.68 -1.42,-2.96 -4,-6.19 -7.74,-9.67 -3.74,-3.48 -9.22,-6.38 -16.44,-8.7 -9.28,-2.19 -17.85,-2.45 -25.71,-0.77 -7.87,1.67 -14.7,4.73 -20.5,9.18 -5.8,4.45 -10.35,10.09 -13.64,16.92 -3.28,6.84 -4.93,14.38 -4.93,22.63 0,6.96 1.16,13.4 3.48,19.34 2.32,5.93 5.61,11.02 9.87,15.27 4.25,4.26 9.28,7.58 15.08,9.96 5.8,2.39 12.18,3.51 19.14,3.39 6.06,-0.13 11.19,-0.49 15.38,-1.07 4.19,-0.58 7.83,-1.32 10.92,-2.22 3.1,-0.9 5.87,-1.9 8.32,-3 2.45,-1.1 5.03,-2.22 7.73,-3.38l-0.38 -6.19c-10.32,3.48 -19.6,4.8 -27.85,3.96 -8.25,-0.84 -15.31,-2.9 -21.17,-6.18 -5.87,-3.29 -10.51,-7.29 -13.93,-11.99 -3.41,-4.71 -5.38,-9.25 -5.9,-13.64 -0.9,-7.22 -0.67,-13.34 0.68,-18.37 1.35,-5.03 3.45,-9.12 6.29,-12.28 2.83,-3.16 6.15,-5.57 9.95,-7.25 3.81,-1.68 7.77,-2.77 11.9,-3.29zm-101.88 0.65l0.39 0c7.09,0 12.89,2.38 17.4,7.15 4.51,4.77 7.29,12.44 8.32,23.01l-50.67 0c0.39,-3.86 1.16,-7.6 2.32,-11.21 1.16,-3.61 2.74,-6.8 4.74,-9.57 2,-2.78 4.45,-5.03 7.35,-6.77 2.9,-1.74 6.28,-2.61 10.15,-2.61z"/>
   </g>
  </g>
 </g>
</svg>
